<?xml version="1.0" encoding="UTF-8" standalone="no"?>
<!DOCTYPE svg PUBLIC "-//W3C//DTD SVG 1.1//EN" "http://www.w3.org/Graphics/SVG/1.1/DTD/svg11.dtd">
<svg xmlns="http://www.w3.org/2000/svg" version="1.1" viewBox="0 0 1660 300" width="1660.0pt" height="300.0pt">
<path d="M 0.00 0.00 L 1660.00 0.00 L 1660.00 300.00 L 0.00 300.00 L 0.00 0.00 Z" fill="#fddf61" />
<path d="M 830.98 57.68 C 838.81 58.82 846.59 60.41 854.42 61.59 C 854.53 66.71 854.36 71.88 854.79 76.99 C 855.38 83.29 855.03 89.62 855.35 95.96 C 847.27 91.26 838.08 88.01 828.74 87.23 C 824.21 86.69 820.01 86.45 815.97 88.92 C 813.09 90.65 811.24 94.70 813.25 97.75 C 815.60 102.05 821.24 104.65 825.56 106.54 C 839.19 112.40 852.77 118.97 862.94 130.08 C 873.15 142.22 872.65 160.59 864.79 173.79 C 859.15 181.60 850.98 187.84 841.76 190.75 C 825.18 195.56 807.85 195.47 791.06 191.78 C 785.52 190.58 777.61 189.62 773.68 185.15 C 772.99 173.76 774.51 162.26 774.25 150.84 C 785.20 158.03 796.67 163.42 810.00 163.85 C 814.80 163.88 820.33 163.08 824.40 160.36 C 827.12 157.54 828.77 152.82 826.83 149.11 C 825.38 146.03 821.44 144.02 818.51 142.58 C 811.41 138.93 803.64 137.51 796.79 133.29 C 788.41 129.50 781.26 123.59 775.68 116.30 C 766.92 104.09 767.62 86.61 776.88 74.90 C 783.43 65.81 795.29 60.80 806.00 58.79 C 813.97 56.73 822.81 57.22 830.98 57.68 Z" fill="#19314b" />
<path d="M 647.65 60.54 C 643.85 64.47 640.48 69.54 639.39 74.97 C 638.75 81.92 639.38 89.09 640.26 96.00 C 640.74 106.86 641.78 117.60 642.85 128.41 C 644.36 142.91 645.23 157.53 647.58 171.93 C 648.57 178.83 649.21 186.35 651.04 193.12 C 652.91 199.51 657.17 204.69 662.73 208.25 C 644.27 210.22 625.93 213.43 607.54 215.93 C 603.33 216.39 599.20 217.18 595.05 218.03 C 597.08 215.33 599.47 212.86 600.78 209.75 C 602.34 206.06 602.86 201.99 602.80 198.01 C 602.69 189.32 602.26 180.65 601.58 171.99 C 601.02 157.54 599.22 143.27 599.24 128.81 C 593.42 143.87 586.81 158.53 581.77 173.96 C 578.91 183.03 574.65 191.52 571.46 200.48 C 568.26 209.32 564.30 217.81 560.77 226.52 C 559.01 226.58 557.26 226.65 555.50 226.71 C 552.26 222.35 549.12 218.02 547.05 212.94 C 541.42 199.42 534.99 186.23 529.27 172.74 C 526.25 164.12 521.31 156.41 518.77 147.66 C 516.25 167.37 514.39 187.13 512.84 206.94 C 512.55 212.72 512.30 218.20 514.16 223.78 C 515.35 228.13 517.85 231.56 520.42 235.17 C 516.95 235.62 513.51 236.18 510.16 237.23 C 498.12 241.00 485.98 244.72 473.74 247.76 C 466.94 250.06 460.09 252.08 453.24 254.20 C 458.33 248.42 462.48 241.59 465.13 234.35 C 467.81 225.04 468.66 214.55 470.38 205.01 C 472.86 188.74 474.26 172.28 477.05 156.06 C 478.74 142.19 480.68 128.37 482.24 114.49 C 482.89 108.15 484.53 100.99 483.35 94.70 C 482.17 89.41 478.55 86.70 474.93 83.09 C 497.75 80.17 520.35 74.65 543.24 72.00 C 542.36 75.48 541.14 79.38 541.41 82.98 C 542.39 92.85 546.26 101.21 548.04 110.83 C 549.29 117.68 551.60 124.23 553.13 131.02 C 554.67 137.53 557.35 143.65 558.94 150.15 C 559.71 146.92 560.56 143.72 561.56 140.56 C 566.14 124.36 569.93 107.94 574.64 91.78 C 575.70 87.72 576.88 83.68 577.83 79.59 C 578.73 75.87 578.33 71.64 578.19 67.83 C 591.76 65.67 605.31 63.52 619.00 62.28 C 628.49 61.78 638.19 60.06 647.65 60.54 Z" fill="#19314b" />
<path d="M 751.97 61.46 C 755.87 61.20 759.76 61.29 763.66 61.44 C 762.34 64.29 761.02 66.99 760.23 70.05 C 758.99 74.39 759.58 79.48 759.48 84.00 C 759.33 95.34 759.68 106.66 759.65 118.00 C 759.74 129.34 760.35 140.70 759.96 152.02 C 760.61 164.50 755.51 177.73 745.97 185.96 C 739.21 192.36 730.07 195.09 721.21 197.14 C 709.88 199.10 699.17 200.69 687.95 197.00 C 681.85 194.62 675.72 192.77 671.21 187.80 C 664.97 181.58 661.57 173.56 659.79 165.03 C 658.36 157.28 658.75 149.84 658.75 142.00 C 658.77 122.32 658.71 102.65 658.65 82.97 C 658.54 77.26 656.10 72.62 653.19 67.88 C 670.34 67.64 687.22 64.82 704.41 65.26 C 702.24 69.30 700.01 73.26 699.79 77.97 C 699.96 102.95 699.65 128.02 699.64 153.01 C 699.60 157.11 700.25 161.02 702.45 164.55 C 704.48 167.02 707.99 168.36 711.10 168.64 C 715.14 168.19 719.69 166.59 722.49 163.51 C 726.02 159.27 726.67 153.33 726.67 148.01 C 726.62 140.32 726.78 132.62 726.69 124.92 C 725.75 109.95 725.17 95.01 725.27 79.99 C 725.34 73.63 722.44 68.34 719.94 62.69 C 724.60 62.55 729.37 62.69 734.00 62.10 C 739.90 61.32 746.01 61.79 751.97 61.46 Z" fill="#19314b" />
<path d="M 866.87 60.54 C 876.60 60.59 886.28 61.49 896.01 61.41 C 902.05 61.31 908.00 62.18 914.02 62.25 C 930.83 62.86 947.61 63.25 964.36 64.79 C 964.67 75.70 965.25 86.65 965.21 97.56 C 955.65 92.61 946.13 93.29 935.73 93.35 C 935.40 107.91 936.68 122.43 936.74 137.00 C 937.82 151.07 937.18 165.03 937.76 179.06 C 938.56 184.91 940.02 190.44 944.24 194.80 C 936.83 194.37 929.41 194.15 922.00 193.74 C 910.98 193.96 900.07 192.71 889.07 192.58 C 893.47 188.04 896.40 182.45 896.60 176.04 C 896.65 169.36 896.21 162.69 896.55 156.01 C 896.77 134.78 896.67 113.55 896.50 92.32 C 889.68 91.60 882.83 91.56 875.99 91.82 C 872.79 91.96 869.79 92.82 866.77 93.81 C 866.89 87.49 866.71 81.20 867.08 74.89 C 866.93 70.10 866.69 65.34 866.87 60.54 Z" fill="#19314b" />
<path d="M 971.21 66.51 C 978.29 67.54 985.44 67.72 992.54 68.63 C 1015.47 70.49 1038.30 73.93 1061.17 76.54 C 1061.44 87.51 1061.38 98.48 1061.63 109.46 C 1057.50 107.44 1053.71 105.41 1049.07 104.84 C 1038.91 103.49 1028.71 101.83 1018.48 101.20 C 1018.26 108.04 1019.08 114.78 1019.22 121.59 C 1031.27 123.44 1043.19 126.17 1055.30 126.87 C 1055.07 136.97 1055.62 147.03 1055.59 157.13 C 1049.49 155.20 1043.28 154.81 1037.04 153.65 C 1030.98 152.55 1024.87 151.75 1018.72 151.35 C 1019.29 158.70 1019.36 166.05 1019.50 173.41 C 1034.65 176.66 1050.07 179.76 1065.54 180.93 C 1066.52 191.82 1066.37 202.79 1066.58 213.72 C 1039.57 208.39 1012.16 204.44 984.98 200.10 C 980.61 199.49 976.24 199.11 971.94 198.06 C 976.15 192.54 978.70 186.01 978.43 179.00 C 978.33 162.33 977.34 145.69 977.46 129.00 C 977.58 120.97 976.54 113.02 976.50 105.00 C 976.19 97.64 976.64 90.30 976.45 82.96 C 976.16 78.26 974.73 73.57 972.82 69.28 C 972.29 68.35 971.76 67.43 971.21 66.51 Z" fill="#19314b" />
<path d="M 1073.73 79.19 C 1084.80 80.79 1095.97 80.94 1107.01 82.92 C 1126.49 85.58 1145.28 88.50 1162.70 98.28 C 1178.16 106.92 1187.76 124.29 1186.76 142.00 C 1187.57 156.13 1180.44 170.18 1167.04 175.72 C 1169.03 180.03 1170.48 184.54 1172.11 188.99 C 1175.38 196.97 1178.56 204.94 1182.47 212.63 C 1186.72 221.57 1191.43 230.64 1197.51 238.48 C 1202.53 244.09 1206.84 250.57 1212.72 255.06 C 1209.20 254.60 1205.64 254.49 1202.15 253.92 C 1189.60 251.52 1177.75 246.39 1166.50 240.45 C 1160.70 237.22 1154.99 233.89 1149.06 230.90 C 1146.80 221.20 1142.99 211.76 1139.38 202.49 C 1136.17 194.72 1133.95 186.49 1130.59 178.79 C 1127.80 178.40 1125.09 177.76 1122.38 176.99 C 1122.43 187.25 1122.24 197.79 1122.83 208.02 C 1123.53 214.90 1126.48 221.28 1130.22 227.01 C 1125.58 226.58 1121.19 225.66 1116.72 224.39 C 1110.25 222.53 1103.57 221.70 1097.08 219.90 C 1089.91 217.84 1082.42 216.81 1075.09 215.48 C 1079.43 210.72 1081.41 205.49 1081.21 199.01 C 1080.39 182.02 1080.67 164.98 1079.79 147.99 C 1079.61 139.98 1079.94 132.00 1079.31 124.01 C 1079.46 114.63 1078.30 105.35 1078.41 95.97 C 1078.46 89.93 1076.41 84.51 1073.73 79.19 Z" fill="#19314b" />
<path d="M 610.12 92.49 C 611.34 92.37 612.56 92.27 613.78 92.20 C 614.51 92.84 615.22 93.48 615.93 94.15 C 613.97 93.65 612.03 93.13 610.12 92.49 Z" fill="#fddf61" />
<path d="M 1115.61 111.33 C 1121.30 110.35 1125.28 113.23 1130.51 114.68 C 1137.75 116.74 1143.34 122.91 1144.94 130.22 C 1145.74 134.05 1145.73 138.13 1145.13 141.99 C 1144.25 146.89 1141.06 151.05 1136.11 152.31 C 1131.35 154.26 1126.41 151.76 1121.53 151.07 C 1121.19 145.12 1120.68 139.24 1118.99 133.50 C 1117.34 125.96 1114.67 119.21 1115.61 111.33 Z" fill="#fddf61" />
<path d="M 999.18 121.59 C 996.87 121.24 994.65 120.57 992.44 119.82 C 995.73 118.82 996.67 119.54 999.18 121.59 Z" fill="#fddf61" />
<path d="M 533.12 124.42 C 534.39 123.99 536.96 125.73 536.60 127.15 C 535.59 127.90 532.74 125.57 533.12 124.42 Z" fill="#fddf61" />
<path d="M 1162.79 126.17 C 1165.50 127.08 1167.93 128.43 1170.38 129.89 C 1167.90 129.13 1163.68 129.08 1162.79 126.17 Z" fill="#fddf61" />
<path d="M 1096.96 137.43 C 1098.87 137.84 1100.68 138.91 1102.43 139.75 C 1099.05 139.45 1095.73 138.85 1092.41 138.18 C 1093.90 137.88 1095.44 137.51 1096.96 137.43 Z" fill="#fddf61" />
<path d="M 500.57 153.88 C 502.26 152.69 503.45 155.57 501.42 155.95 C 500.32 155.62 500.04 154.93 500.57 153.88 Z" fill="#fddf61" />
<path d="M 1000.33 183.55 C 1001.31 184.08 1002.23 184.71 1003.15 185.32 C 1001.80 185.43 1000.44 185.51 999.08 185.58 C 999.48 184.89 999.89 184.21 1000.33 183.55 Z" fill="#fddf61" />
<path d="M 493.69 199.60 C 493.37 200.61 492.79 200.91 491.93 200.48 C 491.03 199.09 493.40 197.72 493.69 199.60 Z" fill="#fddf61" />
</svg>