<?xml version="1.0" encoding="UTF-8" standalone="no"?>
<!DOCTYPE svg PUBLIC "-//W3C//DTD SVG 1.1//EN" "http://www.w3.org/Graphics/SVG/1.1/DTD/svg11.dtd">
<svg xmlns="http://www.w3.org/2000/svg" version="1.1" viewBox="0 0 1280 640" width="1280.0pt" height="640.0pt">
<path d="M 0.00 0.00 L 1280.00 0.00 L 1280.00 640.00 L 0.00 640.00 L 0.00 0.00 Z" fill="#fdde62" />
<path d="M 632.00 105.65 C 642.29 105.71 652.75 108.12 662.72 110.54 C 663.17 121.75 663.50 132.89 663.44 144.12 C 655.77 140.21 647.72 136.60 638.98 136.21 C 634.91 136.08 630.12 135.73 626.28 137.29 C 622.47 138.76 620.75 143.69 622.74 147.24 C 624.70 151.23 629.89 153.42 633.66 155.35 C 646.88 161.74 660.14 167.70 670.20 178.82 C 675.91 184.64 678.99 192.96 679.42 201.00 C 679.41 209.91 677.33 218.72 671.87 225.90 C 665.26 235.02 653.98 240.12 643.20 242.24 C 627.21 245.20 610.82 244.45 595.01 240.81 C 591.45 239.90 586.92 238.51 584.52 235.59 C 583.15 224.32 585.17 212.56 584.78 201.20 C 588.63 204.19 592.80 206.68 597.17 208.82 C 605.78 212.79 614.35 215.69 624.00 214.60 C 628.56 214.29 633.57 211.96 635.85 207.84 C 637.31 204.86 637.33 200.58 635.08 197.96 C 631.93 194.17 627.89 192.39 623.53 190.37 C 616.49 187.24 609.46 184.21 602.88 180.15 C 592.73 174.18 583.62 165.12 580.41 153.50 C 578.58 147.57 579.45 141.87 580.79 135.96 C 582.60 128.68 586.45 122.03 592.42 117.38 C 603.63 108.18 617.88 105.76 632.00 105.65 Z" fill="#183450" />
<path d="M 459.70 109.37 C 456.37 113.16 453.61 117.16 452.51 122.17 C 451.70 126.94 452.25 132.17 452.58 136.98 C 453.96 152.36 455.48 167.66 457.42 183.02 C 459.62 202.20 461.19 221.83 464.75 240.79 C 466.13 247.80 470.69 252.41 475.99 256.77 C 453.54 259.93 431.02 262.64 408.59 265.89 C 411.27 263.25 413.64 260.55 414.80 256.89 C 417.34 249.75 416.04 243.32 415.63 236.00 C 414.82 216.55 413.11 197.07 412.02 177.61 C 400.92 205.22 391.07 233.31 379.84 260.86 C 377.80 265.75 375.87 270.64 373.17 275.22 C 371.34 275.35 369.50 275.48 367.67 275.63 C 360.42 269.72 359.06 261.83 355.22 253.78 C 352.06 247.13 349.62 240.18 346.43 233.55 C 343.71 227.83 341.53 221.88 338.86 216.13 C 336.08 209.70 332.65 203.39 330.48 196.75 C 329.60 205.51 328.42 214.24 327.55 223.00 C 327.03 231.35 326.20 239.67 325.55 248.00 C 324.87 254.90 324.12 262.09 324.68 269.02 C 325.34 274.49 328.35 278.40 331.77 282.46 C 309.79 287.40 288.18 293.88 266.26 299.01 C 271.09 294.36 274.88 288.73 277.20 282.42 C 278.66 277.86 278.97 272.75 279.78 267.99 C 285.51 230.40 290.61 192.73 295.09 154.98 C 296.08 147.28 293.46 140.96 286.92 136.72 C 309.61 132.44 332.15 127.13 354.96 123.50 C 354.03 127.29 352.92 131.06 353.49 135.00 C 354.05 138.39 355.04 141.71 355.90 145.03 C 360.94 163.44 365.45 181.94 371.17 200.16 C 377.57 177.98 383.60 155.75 389.62 133.46 C 391.06 128.21 390.95 122.94 390.62 117.57 C 407.82 114.10 425.55 112.20 443.00 110.49 C 448.58 110.02 454.08 109.32 459.70 109.37 Z" fill="#183450" />
<path d="M 564.22 110.28 C 567.38 110.18 570.58 110.26 573.76 110.32 C 571.92 114.41 570.34 118.44 570.24 122.99 C 569.98 137.30 570.82 151.66 570.85 166.00 C 570.78 171.34 571.30 176.66 571.22 182.00 C 571.14 190.93 571.88 200.15 571.03 209.03 C 569.48 218.84 565.64 228.37 558.14 235.14 C 549.10 243.59 536.01 246.93 523.98 247.92 C 517.10 248.84 509.95 248.10 503.21 246.58 C 497.03 244.85 490.59 242.61 485.76 238.25 C 476.88 231.05 472.65 219.14 472.00 208.01 C 471.38 197.04 471.92 185.99 471.60 175.00 C 471.69 161.63 470.90 148.37 471.39 135.02 C 471.85 128.99 469.29 122.99 466.23 117.93 C 482.75 116.61 499.24 115.09 515.81 114.56 C 514.36 117.35 512.84 119.85 512.27 122.99 C 511.35 127.54 512.12 132.26 512.10 137.00 C 512.09 146.67 512.18 156.33 511.95 166.00 C 511.97 176.98 512.39 188.03 511.92 199.01 C 511.83 202.21 511.93 205.46 512.46 208.62 C 513.21 211.95 514.08 215.01 517.27 216.77 C 522.52 220.25 529.64 217.88 533.84 213.84 C 538.28 209.31 538.74 203.01 538.64 197.00 C 538.38 187.38 539.23 178.43 537.86 168.99 C 537.30 155.34 536.88 141.65 536.62 127.98 C 536.43 122.04 534.30 116.82 531.60 111.61 C 535.73 111.22 539.88 111.06 544.02 111.01 C 550.90 109.85 557.33 110.50 564.22 110.28 Z" fill="#183450" />
<path d="M 674.97 109.30 C 707.16 110.23 739.43 111.81 771.53 114.48 C 771.78 125.30 772.43 136.12 772.33 146.94 C 762.87 142.91 752.81 142.86 742.69 142.61 C 743.14 153.08 743.22 163.54 743.49 174.01 C 744.38 184.34 744.31 194.68 744.66 205.03 C 745.34 213.34 744.63 221.64 745.39 229.96 C 746.24 235.44 748.24 240.53 751.66 244.93 C 741.75 244.69 731.89 243.85 721.99 243.39 C 713.93 242.44 705.86 242.85 697.79 242.23 C 701.16 237.55 704.08 233.02 704.38 227.05 C 704.37 207.02 704.76 187.00 704.50 166.96 C 703.91 158.41 704.19 149.89 704.13 141.33 C 694.38 140.51 684.90 140.40 675.21 142.00 C 674.75 131.09 675.48 120.22 674.97 109.30 Z" fill="#183450" />
<path d="M 777.70 116.10 C 807.92 118.56 837.90 122.89 867.94 126.79 C 868.57 137.64 868.44 148.60 868.51 159.47 C 864.87 157.77 861.19 156.44 857.21 155.75 C 846.74 153.86 836.16 152.34 825.59 151.12 C 825.08 158.01 825.90 164.81 825.79 171.68 C 837.80 174.31 850.04 176.08 862.23 177.65 C 861.99 187.65 862.93 197.58 862.58 207.59 C 850.61 204.72 838.18 202.53 825.95 201.16 C 826.23 208.53 826.11 215.91 826.27 223.29 C 841.74 226.81 857.31 229.66 873.06 231.55 C 873.70 242.19 873.39 252.83 873.74 263.49 C 864.81 262.13 855.95 260.37 847.04 258.89 C 824.39 255.35 801.77 251.67 779.08 248.34 C 781.00 245.98 782.76 243.63 783.68 240.68 C 785.99 234.16 785.20 227.90 785.19 220.97 C 784.36 213.65 785.03 206.34 784.57 199.00 C 784.09 190.67 783.76 182.35 783.71 174.00 C 783.64 163.67 782.68 153.30 783.08 143.00 C 783.01 137.13 783.54 131.67 782.06 126.02 C 781.18 122.45 779.55 119.25 777.70 116.10 Z" fill="#183450" />
<path d="M 608.70 128.05 C 609.76 129.48 610.78 130.93 611.81 132.38 C 611.46 133.13 611.11 133.88 610.76 134.62 C 610.20 133.12 609.59 131.61 609.13 130.07 C 608.98 129.40 608.83 128.72 608.70 128.05 Z" fill="#fdde62" />
<path d="M 880.71 129.35 C 894.84 130.62 908.94 132.22 923.01 134.03 C 940.06 136.90 956.03 139.78 971.01 149.00 C 982.78 156.58 991.00 169.12 992.86 183.04 C 994.00 191.57 993.83 201.28 990.29 209.27 C 987.17 216.45 981.28 222.00 974.13 225.10 C 976.82 231.91 979.97 238.51 982.71 245.30 C 987.95 256.72 993.74 267.96 1000.36 278.64 C 1005.25 285.75 1010.96 292.82 1018.01 297.90 C 1005.04 297.32 992.26 294.49 980.22 289.67 C 971.98 286.94 964.44 282.85 956.50 279.42 C 954.04 267.64 948.67 255.82 944.44 244.55 C 942.40 239.10 940.07 233.78 937.90 228.39 C 935.04 227.82 932.21 227.18 929.40 226.44 C 929.98 236.97 929.53 247.51 930.47 257.99 C 931.52 264.36 934.27 270.62 937.82 275.99 C 929.84 274.92 922.12 272.74 914.20 271.36 C 903.55 269.04 892.97 266.39 882.00 264.99 C 884.04 262.56 886.52 259.96 887.37 256.84 C 888.64 252.88 888.25 249.05 887.99 245.00 C 887.73 229.66 886.75 214.35 886.64 199.00 C 886.67 187.31 885.77 175.66 885.61 163.97 C 885.02 156.98 885.45 149.98 885.16 142.98 C 884.91 138.00 883.02 133.67 880.71 129.35 Z" fill="#183450" />
<path d="M 758.51 132.21 C 759.18 133.24 757.31 135.41 756.21 134.73 C 755.54 133.56 757.27 131.52 758.51 132.21 Z" fill="#fdde62" />
<path d="M 605.38 140.07 C 604.98 140.89 604.29 141.22 603.30 141.08 C 602.90 139.70 605.08 138.24 605.38 140.07 Z" fill="#fdde62" />
<path d="M 600.63 141.95 C 601.59 142.72 602.38 143.55 603.14 144.51 C 602.23 144.61 601.33 144.71 600.42 144.82 C 600.47 143.86 600.54 142.90 600.63 141.95 Z" fill="#fdde62" />
<path d="M 554.49 145.82 C 556.33 147.05 557.94 148.47 559.31 150.21 C 557.22 149.21 555.78 147.70 554.49 145.82 Z" fill="#fdde62" />
<path d="M 810.77 151.71 C 809.12 154.18 807.53 155.64 804.92 157.01 C 806.42 154.62 808.31 153.06 810.77 151.71 Z" fill="#fdde62" />
<path d="M 607.13 152.29 C 608.75 153.84 607.04 155.09 605.34 154.95 C 605.60 153.72 606.19 152.83 607.13 152.29 Z" fill="#fdde62" />
<path d="M 908.46 161.10 C 911.13 161.43 911.82 161.81 913.20 164.07 C 911.51 163.23 909.94 162.26 908.46 161.10 Z" fill="#fdde62" />
<path d="M 928.29 162.06 C 933.41 162.64 938.55 164.36 942.95 167.05 C 949.01 170.63 952.36 178.12 952.34 185.00 C 952.53 190.36 951.53 196.56 947.16 200.17 C 941.43 204.10 935.39 202.25 929.22 200.67 C 928.36 195.53 928.80 190.16 928.58 184.96 C 928.28 177.35 928.05 169.67 928.29 162.06 Z" fill="#fdde62" />
<path d="M 798.59 169.67 C 799.69 169.69 800.78 169.73 801.88 169.79 C 803.12 170.46 804.32 171.20 805.52 171.95 C 803.68 171.72 801.87 171.47 800.07 171.02 C 799.57 170.58 799.08 170.13 798.59 169.67 Z" fill="#fdde62" />
<path d="M 814.19 185.26 L 814.90 184.85 L 815.60 185.26 L 815.59 186.09 L 814.88 186.49 L 814.18 186.08 L 814.19 185.26 Z" fill="#fdde62" />
<path d="M 908.76 189.69 C 905.77 189.07 902.79 188.45 899.77 187.92 C 903.74 187.02 905.37 187.58 908.76 189.69 Z" fill="#fdde62" />
<path d="M 497.26 188.24 C 497.77 188.78 497.77 188.78 497.26 188.24 Z" fill="#fdde62" />
<path d="M 715.99 190.91 C 717.84 189.68 718.79 192.55 716.73 192.91 C 715.61 192.60 715.36 191.93 715.99 190.91 Z" fill="#fdde62" />
<path d="M 366.27 215.23 C 366.78 215.77 366.78 215.77 366.27 215.23 Z" fill="#fdde62" />
<path d="M 636.99 220.22 C 638.13 220.86 639.25 221.54 640.35 222.24 C 638.69 222.33 637.03 222.41 635.37 222.47 C 635.90 221.71 636.44 220.96 636.99 220.22 Z" fill="#fdde62" />
<path d="M 807.18 224.30 L 808.02 224.30 L 808.46 225.00 L 808.03 225.70 L 807.18 225.69 L 806.75 225.00 L 807.18 224.30 Z" fill="#fdde62" />
<path d="M 636.22 225.21 C 636.75 225.75 636.75 225.75 636.22 225.21 Z" fill="#fdde62" />
<path d="M 911.62 229.76 C 911.61 231.36 911.01 231.97 909.82 231.57 C 909.46 230.36 910.06 229.76 911.62 229.76 Z" fill="#fdde62" />
<path d="M 296.25 256.21 C 296.78 256.75 296.78 256.75 296.25 256.21 Z" fill="#fdde62" />
<path d="M 664.00 291.22 C 668.80 291.16 673.28 292.41 678.01 292.88 C 683.32 293.45 688.67 293.42 693.99 293.94 C 705.19 294.96 715.87 295.17 726.74 297.39 C 742.55 300.25 758.96 301.13 774.20 305.67 C 779.26 307.06 782.80 310.33 788.00 311.04 C 796.00 312.14 803.59 313.51 810.95 317.05 C 815.76 319.40 818.95 322.92 824.00 323.87 C 830.49 325.20 836.68 326.93 842.13 330.86 C 845.13 333.04 847.32 335.93 850.75 337.17 C 854.46 338.60 858.03 339.37 861.43 341.59 C 864.13 343.30 866.00 345.61 868.16 347.90 C 871.07 351.05 875.38 352.33 878.63 355.36 C 882.42 358.67 883.52 363.41 887.20 366.82 C 890.35 369.86 893.08 373.17 894.70 377.29 C 895.92 380.11 895.73 383.03 895.84 386.06 C 897.95 389.27 900.01 392.25 900.98 396.03 C 902.14 400.60 902.80 405.32 903.27 410.00 C 903.74 421.49 904.37 432.04 900.06 442.97 C 895.77 453.36 888.45 462.65 880.20 470.20 C 869.26 480.00 856.69 488.09 843.49 494.49 C 826.59 503.05 808.61 509.24 790.43 514.45 C 777.40 518.35 764.14 521.38 750.77 523.81 C 731.35 527.57 711.73 530.25 692.00 531.65 C 668.27 534.06 643.92 533.78 620.05 533.65 C 615.00 533.69 610.01 533.17 604.98 532.79 C 595.29 532.65 585.66 531.32 576.00 530.57 C 551.71 528.38 527.49 523.91 503.79 518.18 C 479.79 512.06 455.38 504.11 433.39 492.61 C 415.07 483.28 397.70 471.21 385.96 454.03 C 380.79 445.74 376.97 436.88 376.43 427.01 C 376.13 416.35 376.20 405.52 379.20 395.21 C 380.22 391.80 382.04 388.84 384.06 385.94 C 384.33 382.67 384.41 379.63 385.79 376.59 C 387.50 372.52 390.36 369.49 393.40 366.40 C 396.54 363.22 397.63 359.00 400.87 355.88 C 403.71 352.94 407.23 351.72 410.39 349.34 C 412.86 347.31 414.61 344.27 417.32 342.31 C 420.94 339.67 425.44 338.81 429.56 337.30 C 432.14 336.38 434.24 334.06 436.35 332.33 C 441.70 327.65 448.68 325.36 455.53 323.91 C 458.52 323.37 460.92 322.12 463.34 320.34 C 470.85 315.03 479.11 313.40 487.99 311.91 C 491.42 311.47 494.39 310.00 497.44 308.45 C 502.69 305.82 508.27 304.54 514.01 303.49 C 526.90 301.15 539.91 299.40 552.84 297.34 C 566.64 294.73 580.90 294.64 594.98 293.00 C 600.47 292.06 605.94 291.34 611.52 291.33 C 629.01 291.09 646.51 291.23 664.00 291.22 Z" fill="#183450" />
<path d="M 629.00 296.25 C 637.14 296.26 645.29 296.26 653.43 296.39 C 657.75 296.44 660.78 298.85 664.99 297.95 C 670.15 297.15 675.38 296.96 680.58 297.58 C 683.76 297.98 686.82 299.13 689.99 299.50 C 693.64 299.68 697.30 298.68 700.98 299.00 C 707.66 299.49 714.07 299.94 720.59 301.57 C 729.22 303.84 738.21 304.65 746.99 306.30 C 757.82 307.38 768.94 309.24 779.30 312.65 C 781.81 313.39 783.83 314.74 785.77 316.46 C 795.23 316.44 804.22 319.14 812.58 323.42 C 815.04 324.69 816.80 326.58 818.66 328.57 C 822.94 329.21 826.94 329.47 831.05 330.91 C 837.59 332.99 843.26 337.88 848.30 342.40 C 851.36 343.16 854.75 343.83 857.51 345.40 C 861.78 347.86 864.07 352.15 868.47 354.51 C 871.42 356.16 874.07 357.94 876.23 360.58 C 876.52 362.00 875.76 364.73 877.27 365.53 C 882.63 369.56 887.98 374.27 890.30 380.76 C 891.47 384.46 889.87 387.29 889.40 390.85 C 890.47 393.17 892.57 395.13 894.11 397.18 C 893.91 404.75 891.69 412.03 886.96 417.99 C 884.81 420.65 880.89 421.49 878.03 423.30 C 876.89 426.29 878.22 430.33 876.47 433.43 C 873.11 440.08 865.24 444.29 858.02 445.02 C 856.43 445.33 854.47 445.24 853.03 446.01 C 851.59 449.07 851.42 452.49 848.78 454.77 C 842.27 460.67 833.64 462.16 825.23 460.10 C 823.76 463.76 823.21 467.40 819.20 469.13 C 814.33 471.03 809.03 471.90 803.98 473.25 C 799.89 474.39 795.98 473.81 791.85 473.29 C 790.53 475.88 789.46 479.35 786.61 480.63 C 783.48 482.13 779.84 482.76 776.49 483.61 C 771.77 484.68 766.84 486.11 762.00 486.34 C 758.33 486.51 754.84 484.67 751.23 484.10 C 749.32 486.49 748.39 490.84 745.07 491.39 C 739.23 492.90 733.00 493.15 727.01 493.79 C 722.94 494.03 718.42 494.95 714.63 493.19 C 712.89 492.67 710.74 491.15 708.94 491.62 C 705.95 493.58 705.74 497.39 701.53 497.80 C 691.76 499.13 681.81 499.49 671.96 499.91 C 667.95 500.26 664.81 495.18 660.97 495.56 C 659.08 497.04 657.57 499.12 655.53 500.38 C 651.31 501.66 646.38 501.18 642.00 501.25 C 636.33 501.09 630.60 501.67 624.95 501.20 C 620.64 500.97 618.69 496.40 615.03 495.65 C 611.77 497.09 609.76 499.64 606.01 499.54 C 595.87 499.51 585.07 498.87 575.05 497.35 C 573.55 494.36 572.67 492.26 569.32 491.01 C 566.65 492.67 564.33 494.34 561.02 494.17 C 552.78 494.06 544.44 493.32 536.39 491.50 C 534.98 491.14 533.42 490.71 532.21 489.86 C 530.70 487.58 529.81 485.17 527.51 483.50 C 524.74 484.82 522.14 486.07 518.99 486.10 C 514.16 486.08 509.22 484.68 504.48 483.78 C 500.53 482.88 496.12 482.27 492.49 480.41 C 489.99 479.07 489.71 474.79 487.59 473.43 C 483.98 473.30 480.63 474.53 476.99 473.50 C 471.21 472.11 464.90 471.10 459.58 468.38 C 456.13 466.75 456.45 462.29 454.08 460.43 C 449.98 460.29 445.77 461.39 441.72 460.33 C 437.69 459.24 433.66 457.29 430.63 454.37 C 428.30 452.19 427.96 448.27 427.03 445.35 C 421.50 445.21 416.29 444.59 411.60 441.41 C 408.68 439.50 405.76 437.03 403.98 433.98 C 402.32 431.35 403.04 428.01 402.78 424.97 C 402.80 423.48 402.14 422.81 400.80 422.32 C 398.26 421.12 395.43 420.70 393.62 418.40 C 388.76 412.60 386.45 404.39 385.96 396.95 C 387.62 395.13 389.12 393.15 390.64 391.22 C 389.94 388.91 389.02 386.42 388.88 384.00 C 389.58 378.09 393.78 372.91 397.95 368.93 C 399.52 367.32 401.48 366.68 403.52 365.89 C 403.89 363.82 404.12 361.67 404.75 359.67 C 406.25 357.15 409.66 355.60 412.05 354.02 C 415.91 351.79 418.06 348.08 421.85 345.81 C 425.14 343.86 428.78 343.05 432.46 342.20 C 438.15 336.91 443.28 331.96 451.18 330.24 C 454.51 329.13 459.01 329.87 461.87 327.91 C 470.06 319.60 483.26 317.28 494.41 316.42 C 496.00 314.81 497.58 313.41 499.77 312.66 C 510.32 308.53 522.88 307.90 534.07 305.92 C 542.52 304.39 551.01 303.81 559.20 301.46 C 566.11 299.65 572.92 299.51 579.99 298.86 C 583.97 298.51 588.21 300.11 591.94 298.93 C 596.84 297.42 601.89 296.88 607.01 296.78 C 611.74 296.73 615.92 298.53 620.31 297.22 C 623.16 296.41 626.05 296.23 629.00 296.25 Z" fill="#fdde62" />
<path d="M 638.99 308.98 C 643.75 309.40 648.59 309.38 651.51 313.77 C 648.18 315.42 644.77 316.60 641.01 316.63 C 635.77 316.57 630.81 316.72 627.31 312.23 C 631.00 310.27 634.72 308.77 638.99 308.98 Z" fill="#ce7f02" />
<path d="M 552.03 317.25 C 555.39 317.36 557.79 318.75 560.21 320.97 C 558.52 322.52 557.20 324.27 554.89 324.85 C 550.54 325.94 545.65 326.01 541.37 324.58 C 539.64 323.79 537.29 322.48 538.07 320.22 C 541.22 316.80 547.79 316.97 552.03 317.25 Z" fill="#ce7f02" />
<path d="M 595.95 317.83 C 595.51 318.42 595.08 319.00 594.65 319.59 C 593.60 319.49 592.56 319.38 591.52 319.25 C 593.12 317.93 593.89 317.85 595.95 317.83 Z" fill="#ce7f02" />
<path d="M 685.32 317.25 C 686.41 316.19 689.03 317.07 687.97 318.74 C 686.86 319.79 684.26 318.95 685.32 317.25 Z" fill="#ce7f02" />
<path d="M 723.50 317.81 C 727.51 316.94 731.96 316.90 735.91 318.10 C 737.75 318.78 739.89 319.69 740.10 321.93 C 739.25 324.02 736.54 324.89 734.53 325.36 C 730.29 326.18 725.56 326.09 721.50 324.50 C 719.93 323.79 718.47 322.99 718.60 321.00 C 719.23 319.20 721.81 318.28 723.50 317.81 Z" fill="#ce7f02" />
<path d="M 637.00 326.61 C 648.80 326.72 661.17 326.67 672.84 328.43 C 683.94 330.01 694.81 331.34 705.64 334.37 C 718.61 337.81 731.47 342.41 743.38 348.64 C 754.39 354.99 764.36 362.00 771.19 373.01 C 776.19 381.01 777.16 391.13 773.89 399.98 C 770.41 409.67 762.77 417.61 754.62 423.63 C 738.18 434.93 718.44 442.04 698.96 445.87 C 690.43 447.73 681.87 449.23 673.15 449.93 C 653.80 451.90 634.42 452.56 615.02 450.75 C 603.25 449.87 591.56 448.70 580.03 446.08 C 565.01 442.65 549.73 438.14 536.05 430.94 C 524.05 424.29 513.36 416.57 506.75 404.19 C 502.89 397.02 502.29 388.70 504.06 380.83 C 506.27 372.58 512.42 365.23 518.88 359.85 C 527.70 352.51 537.74 346.42 548.55 342.51 C 556.23 339.21 564.17 336.69 572.24 334.54 C 593.46 329.31 615.18 326.98 637.00 326.61 Z" fill="#ce7f02" />
<path d="M 627.00 331.71 C 636.04 331.50 644.97 331.12 654.00 331.87 C 658.21 332.12 662.33 332.20 666.53 332.64 C 683.10 334.59 700.21 337.47 716.01 342.96 C 729.52 347.18 742.14 354.00 753.24 362.75 C 760.16 368.76 766.22 376.64 767.32 386.00 C 768.23 395.43 764.57 404.36 758.27 411.27 C 748.60 421.84 734.72 428.66 721.52 433.70 C 693.10 444.11 661.07 446.95 631.00 446.39 C 613.46 446.00 596.09 443.76 578.94 440.11 C 563.86 436.63 549.39 431.97 536.04 423.94 C 527.69 419.25 520.53 412.69 515.42 404.57 C 511.13 397.62 509.92 388.99 512.36 381.18 C 514.80 373.26 520.46 366.89 526.82 361.80 C 542.70 349.53 560.75 342.88 580.03 338.03 C 595.53 334.49 611.07 332.09 627.00 331.71 Z" fill="#fdde62" />
<path d="M 522.48 337.83 C 519.34 338.12 516.45 338.15 513.49 336.91 C 515.64 333.16 521.28 333.44 522.48 337.83 Z" fill="#ce7f02" />
<path d="M 757.47 334.58 C 759.38 334.00 763.84 333.82 763.80 336.76 C 761.51 338.07 758.57 338.30 756.28 336.87 C 755.78 335.40 756.18 334.64 757.47 334.58 Z" fill="#ce7f02" />
<path d="M 683.81 342.52 C 692.69 344.57 701.98 346.75 710.19 350.80 C 712.42 351.74 713.28 353.54 714.31 355.57 C 704.79 356.26 695.27 355.55 685.73 356.11 C 686.12 357.38 686.47 358.70 687.02 359.91 C 690.39 361.21 693.57 360.85 696.06 363.94 C 702.07 370.79 707.62 378.06 713.63 384.93 C 711.51 389.61 709.23 394.20 706.68 398.66 C 702.72 405.59 699.29 412.69 694.94 419.38 C 687.88 410.25 681.63 400.57 674.36 391.59 C 668.38 383.29 662.22 375.14 656.10 366.94 C 655.21 365.33 653.04 363.33 654.37 361.48 C 657.30 360.85 660.41 360.86 663.39 360.70 C 663.44 359.21 663.49 357.72 663.54 356.23 C 652.70 355.90 641.84 356.02 631.00 356.00 C 624.35 356.05 617.88 355.86 611.27 356.27 C 613.38 360.14 617.39 361.55 619.90 365.04 C 624.47 371.06 629.18 376.95 633.49 383.15 C 626.62 394.64 618.94 405.68 611.48 416.80 C 604.21 406.93 597.50 396.68 590.20 386.83 C 584.80 378.53 578.71 370.56 574.04 361.83 C 578.21 361.39 582.40 361.11 586.59 360.90 C 586.67 359.27 586.75 357.63 586.84 355.99 C 576.58 355.89 566.30 356.23 556.05 355.87 C 559.85 354.00 563.76 352.40 567.61 350.65 C 573.45 347.93 579.97 346.26 586.22 344.61 C 618.02 337.10 651.73 336.07 683.81 342.52 Z" fill="#ce7f02" />
<path d="M 473.49 345.67 C 477.65 344.89 482.34 345.03 486.27 346.76 C 487.87 347.47 488.71 348.39 489.42 349.99 C 488.31 352.57 485.28 353.11 482.83 353.66 C 478.47 354.34 473.50 354.34 469.37 352.64 C 468.15 352.13 466.06 350.51 466.72 349.03 C 468.19 346.99 471.15 346.19 473.49 345.67 Z" fill="#ce7f02" />
<path d="M 797.49 345.59 C 801.58 345.02 806.10 345.29 809.92 347.00 C 811.50 347.77 812.86 348.79 812.79 350.72 C 811.83 352.53 809.65 353.06 807.82 353.55 C 803.04 354.56 797.76 354.50 793.14 352.82 C 791.53 352.22 790.22 351.14 790.22 349.30 C 791.84 346.85 794.77 346.13 797.49 345.59 Z" fill="#ce7f02" />
<path d="M 850.70 356.28 C 852.82 356.31 853.16 356.77 854.36 358.40 C 852.83 358.44 851.31 358.45 849.78 358.44 C 850.08 357.71 850.38 356.99 850.70 356.28 Z" fill="#ce7f02" />
<path d="M 736.26 364.19 C 740.49 368.36 744.11 373.03 746.59 378.44 C 749.39 384.43 749.07 391.86 746.92 398.00 C 744.16 405.54 738.67 410.68 732.57 415.60 C 723.13 422.61 712.49 427.25 701.27 430.61 C 706.54 421.90 711.04 412.82 715.89 403.87 C 722.54 391.69 728.40 379.12 734.88 366.86 C 735.34 365.97 735.80 365.08 736.26 364.19 Z" fill="#ce7f02" />
<path d="M 540.18 365.90 C 553.47 385.18 566.90 404.39 580.71 423.31 C 583.25 426.72 585.73 430.16 588.01 433.75 C 571.03 430.33 552.66 423.23 540.24 410.77 C 534.81 405.33 530.04 397.80 529.26 390.03 C 528.82 380.78 534.11 372.42 540.18 365.90 Z" fill="#ce7f02" />
<path d="M 449.53 370.60 C 450.94 371.31 453.23 373.00 451.82 374.74 C 450.19 376.39 447.20 376.75 445.00 377.00 C 439.67 377.22 434.39 377.29 430.58 372.96 C 435.62 368.36 443.48 368.19 449.53 370.60 Z" fill="#ce7f02" />
<path d="M 831.48 369.73 C 835.53 368.88 840.04 368.81 844.04 369.99 C 845.76 370.46 846.79 371.50 847.76 372.96 C 847.07 374.51 846.38 375.21 844.81 375.82 C 841.24 377.28 836.97 377.31 833.20 376.87 C 830.38 376.37 827.77 375.99 826.57 373.03 C 827.82 371.16 829.31 370.25 831.48 369.73 Z" fill="#ce7f02" />
<path d="M 794.39 374.56 C 795.93 374.36 797.45 374.42 798.91 374.99 C 799.26 377.99 795.99 378.01 794.10 376.85 C 793.06 376.89 793.26 374.07 794.39 374.56 Z" fill="#ce7f02" />
<path d="M 488.42 377.10 C 485.65 379.06 484.04 379.14 480.72 378.84 C 481.12 377.78 481.50 376.71 481.85 375.63 C 484.45 374.74 486.16 375.99 488.42 377.10 Z" fill="#ce7f02" />
<path d="M 402.10 382.55 C 404.85 382.05 405.22 382.17 406.37 384.70 C 404.57 384.70 402.76 384.67 400.96 384.62 C 401.32 383.92 401.70 383.23 402.10 382.55 Z" fill="#ce7f02" />
<path d="M 639.18 391.08 C 650.59 406.24 661.56 421.74 673.05 436.84 C 651.47 439.87 629.60 439.74 607.99 437.09 C 616.94 423.69 626.22 410.56 634.75 396.76 C 636.07 394.76 637.51 392.80 639.18 391.08 Z" fill="#ce7f02" />
<path d="M 474.43 393.47 C 477.02 392.61 480.18 393.05 482.58 394.30 C 483.51 396.52 481.49 396.33 480.02 397.09 C 477.43 397.86 475.13 397.50 472.96 395.90 C 472.78 394.51 473.27 393.70 474.43 393.47 Z" fill="#ce7f02" />
<path d="M 807.63 395.88 C 803.72 397.19 799.40 398.92 796.34 394.99 C 798.88 391.63 805.74 391.80 807.63 395.88 Z" fill="#ce7f02" />
<path d="M 385.96 396.95 C 386.45 404.39 388.76 412.60 393.62 418.40 C 395.43 420.70 398.26 421.12 400.80 422.32 C 402.14 422.81 402.80 423.48 402.78 424.97 C 403.04 428.01 402.32 431.35 403.98 433.98 C 405.76 437.03 408.68 439.50 411.60 441.41 C 416.29 444.59 421.50 445.21 427.03 445.35 C 427.96 448.27 428.30 452.19 430.63 454.37 C 433.66 457.29 437.69 459.24 441.72 460.33 C 445.77 461.39 449.98 460.29 454.08 460.43 C 456.45 462.29 456.13 466.75 459.58 468.38 C 464.90 471.10 471.21 472.11 476.99 473.50 C 480.63 474.53 483.98 473.30 487.59 473.43 C 489.71 474.79 489.99 479.07 492.49 480.41 C 496.12 482.27 500.53 482.88 504.48 483.78 C 509.22 484.68 514.16 486.08 518.99 486.10 C 522.14 486.07 524.74 484.82 527.51 483.50 C 529.81 485.17 530.70 487.58 532.21 489.86 C 533.42 490.71 534.98 491.14 536.39 491.50 C 544.44 493.32 552.78 494.06 561.02 494.17 C 564.33 494.34 566.65 492.67 569.32 491.01 C 572.67 492.26 573.55 494.36 575.05 497.35 C 585.07 498.87 595.87 499.51 606.01 499.54 C 609.76 499.64 611.77 497.09 615.03 495.65 C 618.69 496.40 620.64 500.97 624.95 501.20 C 630.60 501.67 636.33 501.09 642.00 501.25 C 646.38 501.18 651.31 501.66 655.53 500.38 C 657.57 499.12 659.08 497.04 660.97 495.56 C 664.81 495.18 667.95 500.26 671.96 499.91 C 681.81 499.49 691.76 499.13 701.53 497.80 C 705.74 497.39 705.95 493.58 708.94 491.62 C 710.74 491.15 712.89 492.67 714.63 493.19 C 718.42 494.95 722.94 494.03 727.01 493.79 C 733.00 493.15 739.23 492.90 745.07 491.39 C 748.39 490.84 749.32 486.49 751.23 484.10 C 754.84 484.67 758.33 486.51 762.00 486.34 C 766.84 486.11 771.77 484.68 776.49 483.61 C 779.84 482.76 783.48 482.13 786.61 480.63 C 789.46 479.35 790.53 475.88 791.85 473.29 C 795.98 473.81 799.89 474.39 803.98 473.25 C 809.03 471.90 814.33 471.03 819.20 469.13 C 823.21 467.40 823.76 463.76 825.23 460.10 C 833.64 462.16 842.27 460.67 848.78 454.77 C 851.42 452.49 851.59 449.07 853.03 446.01 C 854.47 445.24 856.43 445.33 858.02 445.02 C 865.24 444.29 873.11 440.08 876.47 433.43 C 878.22 430.33 876.89 426.29 878.03 423.30 C 880.89 421.49 884.81 420.65 886.96 417.99 C 891.69 412.03 893.91 404.75 894.11 397.18 C 896.96 400.85 896.32 404.66 896.42 409.00 C 896.24 415.29 896.92 421.82 896.03 428.03 C 894.29 440.47 887.37 451.84 878.80 460.81 C 861.18 478.41 839.96 489.29 816.93 498.10 C 791.26 507.81 764.98 514.15 738.02 519.03 C 729.33 520.19 720.76 521.93 712.00 522.64 C 700.40 523.96 688.68 525.57 677.00 525.56 C 673.31 525.70 669.70 526.45 666.00 526.48 C 648.00 526.72 630.00 526.79 612.00 526.51 C 591.63 525.04 571.19 523.51 550.99 520.41 C 520.58 515.91 490.72 508.25 461.91 497.51 C 440.91 489.50 420.40 478.52 403.73 463.26 C 395.97 455.65 389.51 446.40 385.63 436.20 C 383.99 431.97 383.44 427.52 383.46 423.00 C 383.49 415.21 383.57 407.41 383.55 399.61 C 384.35 398.72 385.15 397.83 385.96 396.95 Z" fill="#ce7f02" />
<path d="M 433.44 399.52 C 438.19 398.23 443.77 398.51 448.18 400.82 C 449.91 401.73 450.82 403.75 449.27 405.29 C 446.93 407.37 443.05 407.90 440.02 408.11 C 435.54 408.23 430.78 408.09 427.93 404.07 C 428.41 401.33 431.08 400.24 433.44 399.52 Z" fill="#ce7f02" />
<path d="M 836.22 399.25 C 840.55 398.54 847.62 398.70 850.75 402.29 C 852.59 404.44 850.19 405.53 848.52 406.50 C 844.66 408.13 840.13 408.39 836.01 407.96 C 833.15 407.54 830.15 406.80 828.79 403.95 C 828.91 400.66 833.73 399.84 836.22 399.25 Z" fill="#ce7f02" />
<path d="M 800.86 416.43 C 802.49 416.38 803.29 417.29 804.41 418.29 C 802.87 418.47 801.31 418.59 799.73 418.63 C 800.10 417.89 800.47 417.16 800.86 416.43 Z" fill="#ce7f02" />
<path d="M 474.39 417.51 C 476.12 417.41 477.83 417.40 479.53 417.47 C 478.87 418.14 478.17 418.76 477.43 419.34 C 476.29 419.48 475.31 418.03 474.39 417.51 Z" fill="#ce7f02" />
<path d="M 434.69 429.11 C 434.73 430.29 434.75 431.46 434.77 432.63 C 432.65 432.26 430.55 431.84 428.49 431.21 C 430.50 429.85 432.33 429.41 434.69 429.11 Z" fill="#ce7f02" />
<path d="M 851.62 431.72 C 848.87 431.75 846.29 431.58 843.63 430.90 C 846.47 429.08 849.75 428.03 851.62 431.72 Z" fill="#ce7f02" />
<path d="M 471.54 433.97 C 476.54 432.98 481.73 433.54 486.17 436.10 C 487.22 436.77 487.74 437.81 488.10 438.97 C 487.41 441.19 485.56 441.84 483.55 442.47 C 478.95 443.67 473.97 443.68 469.35 442.57 C 467.04 441.98 464.97 441.08 463.68 438.96 C 464.76 435.69 468.56 434.69 471.54 433.97 Z" fill="#ce7f02" />
<path d="M 796.39 434.45 C 801.51 433.19 807.54 433.31 812.32 435.70 C 814.17 436.71 815.00 437.79 815.16 439.95 C 813.53 441.83 811.33 442.42 808.99 442.90 C 804.88 443.64 800.56 443.50 796.50 442.59 C 794.16 442.00 792.04 441.20 790.87 438.93 C 791.58 436.13 793.85 435.18 796.39 434.45 Z" fill="#ce7f02" />
<path d="M 509.42 446.33 C 510.62 445.09 512.81 446.28 511.84 447.93 C 510.62 449.15 508.44 448.00 509.42 446.33 Z" fill="#ce7f02" />
<path d="M 531.37 454.45 C 535.56 453.18 540.65 453.20 544.84 454.45 C 547.04 455.14 548.76 456.64 549.28 458.95 C 548.42 460.37 547.43 461.27 545.87 461.86 C 541.61 463.51 536.63 463.49 532.19 462.71 C 529.63 462.15 526.61 460.98 526.35 457.95 C 527.50 456.06 529.33 455.09 531.37 454.45 Z" fill="#ce7f02" />
<path d="M 735.18 454.21 C 739.43 453.11 744.11 453.31 748.26 454.72 C 749.88 455.34 751.74 456.22 752.38 457.98 C 752.88 461.01 749.49 461.91 747.23 462.57 C 742.94 463.44 738.20 463.50 734.00 462.14 C 732.19 461.58 730.83 460.60 729.92 458.91 C 730.03 455.96 732.79 454.95 735.18 454.21 Z" fill="#ce7f02" />
<path d="M 586.43 463.52 C 588.62 462.89 590.95 462.94 592.36 464.99 C 591.30 467.17 587.17 467.06 585.51 465.67 C 584.67 464.36 584.98 463.64 586.43 463.52 Z" fill="#ce7f02" />
<path d="M 686.52 463.81 C 688.25 463.32 692.49 463.09 691.97 465.93 C 689.39 467.00 687.54 467.00 684.98 465.88 C 685.19 464.75 685.70 464.06 686.52 463.81 Z" fill="#ce7f02" />
<path d="M 632.45 466.62 C 637.36 465.03 642.94 465.43 647.72 467.30 C 649.44 468.01 650.59 469.13 650.75 471.08 C 649.66 472.28 648.41 473.22 646.83 473.69 C 642.17 475.11 636.86 475.05 632.19 473.68 C 630.32 473.05 628.27 472.27 627.92 470.06 C 628.78 468.08 630.54 467.31 632.45 466.62 Z" fill="#ce7f02" />
</svg>